<mxfile host="app.diagrams.net" modified="2023-05-18T12:11:40.516Z" agent="Mozilla/5.0 (Windows NT 10.0; Win64; x64) AppleWebKit/537.36 (KHTML, like Gecko) Chrome/113.0.0.0 Safari/537.36" version="21.2.6" etag="yzQPvJczpNYuE2Yb2S5k" type="github">
  <diagram name="Page-1" id="VMn7lpuZRoLYrkkRPWZc">
    <mxGraphModel>
      <root>
        <mxCell id="0" />
        <mxCell id="1" parent="0" />
      </root>
    </mxGraphModel>
  </diagram>
</mxfile>
